<?xml version="1.0" standalone="no"?>
<!DOCTYPE svg PUBLIC "-//W3C//DTD SVG 20010904//EN"
 "http://www.w3.org/TR/2001/REC-SVG-20010904/DTD/svg10.dtd">
<svg version="1.0" xmlns="http://www.w3.org/2000/svg"
 width="708.000000pt" height="709.000000pt" viewBox="0 0 708.000000 709.000000"
 preserveAspectRatio="xMidYMid meet">
<metadata>
Created by potrace 1.15, written by Peter Selinger 2001-2017
</metadata>
<g transform="translate(0.000000,709.000000) scale(0.100000,-0.100000)"
fill="#000000" stroke="none">
<path d="M3380 6873 c-557 -30 -1080 -189 -1546 -470 -247 -149 -410 -276
-623 -486 -500 -493 -824 -1117 -940 -1812 -32 -189 -41 -310 -41 -549 0 -387
53 -710 174 -1062 171 -498 425 -904 801 -1279 645 -646 1512 -989 2430 -962
765 23 1480 300 2060 797 116 100 331 321 418 430 358 449 595 974 686 1520
39 233 45 305 45 565 0 277 -12 402 -60 645 -217 1099 -988 2023 -2029 2433
-172 68 -260 95 -446 141 -295 72 -640 105 -929 89z m170 -1845 l-1 -1353
-114 234 -115 234 0 1012 0 1011 109 107 c59 59 111 107 115 107 3 0 6 -609 6
-1352z m-819 -340 l547 -543 138 -275 c77 -151 141 -279 142 -285 2 -5 -15 10
-39 35 -23 25 -119 124 -213 220 -94 96 -239 245 -321 330 -83 85 -304 313
-491 505 -187 193 -366 377 -396 410 -51 53 -159 234 -314 520 -30 56 -90 114
947 -917z m-843 658 l132 -254 0 -1541 0 -1541 -40 -102 c-21 -57 -57 -148
-78 -203 -22 -55 -63 -162 -92 -237 -30 -76 -54 -137 -55 -135 -7 8 -14 4267
-8 4267 4 0 68 -115 141 -254z m3612 197 c-18 -21 -112 -119 -209 -218 -229
-234 -773 -795 -786 -810 -5 -6 -80 -83 -165 -171 -86 -87 -286 -293 -444
-457 -159 -163 -291 -296 -292 -294 -2 2 7 27 21 55 14 29 63 134 109 235 180
389 70 254 829 1021 l669 675 146 3 c81 2 149 2 151 1 2 -1 -11 -19 -29 -40z
m-2005 -2111 c-33 -31 -289 -275 -570 -542 -280 -267 -552 -526 -605 -576
-124 -118 -175 -163 -168 -144 3 8 45 116 92 240 l86 225 432 427 433 428 180
0 180 0 -60 -58z m657 -81 c143 -149 543 -561 1019 -1051 163 -168 326 -336
362 -375 l66 -70 1 -167 c0 -93 -3 -168 -8 -168 -4 0 -450 443 -992 985 l-985
985 202 0 201 0 134 -139z m-590 -1517 l-7 -1202 -123 117 -123 116 3 975 3
975 125 322 125 323 2 -213 c2 -116 -1 -753 -5 -1413z"/>
</g>
</svg>
